<?xml version="1.0" standalone="no"?>
<!DOCTYPE svg PUBLIC "-//W3C//DTD SVG 20010904//EN"
 "http://www.w3.org/TR/2001/REC-SVG-20010904/DTD/svg10.dtd">
<svg version="1.0" xmlns="http://www.w3.org/2000/svg"
 width="700.000000pt" height="700.000000pt" viewBox="0 0 700.000000 700.000000"
 preserveAspectRatio="xMidYMid meet">
<metadata>
Created by potrace 1.14, written by Peter Selinger 2001-2017
</metadata>
<g transform="translate(0.000000,700.000000) scale(0.100000,-0.100000)"
fill="#000000" stroke="none">
<path d="M3278 6996 c-1 -2 -42 -6 -89 -10 -47 -4 -95 -8 -107 -11 -12 -2 -47
-6 -78 -10 -32 -3 -92 -13 -133 -21 -42 -8 -89 -18 -106 -20 -191 -33 -534
-150 -763 -261 -191 -92 -461 -253 -572 -340 -8 -6 -51 -40 -95 -74 -342 -266
-650 -623 -875 -1014 -47 -83 -170 -327 -170 -340 0 -3 -9 -24 -20 -48 -57
-123 -157 -435 -186 -582 -2 -11 -10 -54 -19 -95 -29 -147 -36 -200 -52 -370
-15 -165 -8 -592 12 -711 2 -13 6 -46 9 -74 9 -78 22 -152 51 -285 21 -96 91
-339 114 -395 5 -11 25 -65 46 -120 64 -170 213 -461 314 -615 271 -411 605
-747 1008 -1016 77 -52 145 -94 149 -94 4 0 15 -6 23 -14 47 -41 413 -212 576
-270 79 -27 261 -84 291 -90 10 -2 57 -13 104 -25 92 -22 172 -38 235 -47 22
-3 47 -7 55 -9 8 -2 42 -7 75 -10 33 -4 71 -9 85 -12 46 -9 554 -11 635 -3
210 23 222 24 365 51 1242 235 2276 1145 2664 2344 39 120 77 258 92 330 17
81 54 301 59 350 4 33 9 71 11 85 9 47 11 525 4 605 -16 169 -22 220 -25 225
-2 3 -6 30 -10 60 -9 75 -69 337 -99 435 -231 758 -692 1404 -1323 1853 -471
335 -1029 556 -1568 622 -49 6 -103 13 -120 16 -32 6 -561 14 -567 10z"/>
</g>
</svg>
